<?xml version="1.0" encoding="UTF-8"?>
<svg width="23px" height="22px" viewBox="0 0 23 22" version="1.1" xmlns="http://www.w3.org/2000/svg" xmlns:xlink="http://www.w3.org/1999/xlink">
    <title>symbol / arrow left</title>
    <g id="symbol-/-arrow-left" stroke="none" stroke-width="1" fill="none" fill-rule="evenodd">
        <g id="Combined-Shape-2" transform="translate(0.500000, -0.500000)" fill="#D8D8D8">
            <path d="M11.7806584,0.840843828 L22.0317731,11.6266574 C22.6560756,12.2827089 22.6560756,13.3501036 22.0317731,14.0073204 C21.4074706,14.663372 20.3942399,14.663372 19.7699374,14.0073204 L12.5,6.359 L12.5,21 C12.5,21.8284271 11.8284271,22.5 11,22.5 C10.1715729,22.5 9.5,21.8284271 9.5,21 L9.5,6.357 L2.23118345,14.0073204 C1.60576009,14.663372 0.592529422,14.663372 -0.0317731049,14.0073204 C-0.656075632,13.3501036 -0.656075632,12.2827089 -0.0317731049,11.6266574 L10.2193416,0.840843828 C10.6508613,0.386385391 11.3480178,0.386385391 11.7806584,0.840843828 Z" id="Combined-Shape" transform="translate(11.000000, 11.500000) rotate(-90.000000) translate(-11.000000, -11.500000) "></path>
        </g>
    </g>
</svg>